<?xml version="1.0" encoding="UTF-8" standalone="no"?>
<!DOCTYPE svg PUBLIC "-//W3C//DTD SVG 1.1//EN" "http://www.w3.org/Graphics/SVG/1.1/DTD/svg11.dtd">
<svg version="1.1" xmlns="http://www.w3.org/2000/svg" xmlns:xlink="http://www.w3.org/1999/xlink" preserveAspectRatio="xMidYMid meet" viewBox="0 0 150 150" width="150" height="150"><defs><path d="M0 150L150 150L150 117.67L0 117.67L0 150Z" id="b2viljDFdZ"></path><path d="M0 0L0 150L32.33 150L32.33 0L0 0Z" id="f5PoViOnF4"></path><path d="M55.9 87.3C62.69 87.3 68.2 81.79 68.2 75C68.2 68.21 62.69 62.7 55.9 62.7C49.11 62.7 43.6 68.21 43.6 75C43.6 81.79 49.11 87.3 55.9 87.3Z" id="a1QaZQ6jiY"></path><path d="M0 32.33L150 32.33L150 0L0 0L0 32.33Z" id="ir6M4YO3K"></path><path d="M117.67 0L117.67 150L150 150L150 0L117.67 0Z" id="a5Yzd3T4yo"></path></defs><g><g><g><use xlink:href="#b2viljDFdZ" opacity="1" fill="#000000" fill-opacity="1"></use><g><use xlink:href="#b2viljDFdZ" opacity="1" fill-opacity="0" stroke="#000000" stroke-width="1" stroke-opacity="0"></use></g></g><g><use xlink:href="#f5PoViOnF4" opacity="1" fill="#000000" fill-opacity="1"></use><g><use xlink:href="#f5PoViOnF4" opacity="1" fill-opacity="0" stroke="#000000" stroke-width="1" stroke-opacity="0"></use></g></g><g><use xlink:href="#a1QaZQ6jiY" opacity="1" fill="#000000" fill-opacity="1"></use><g><use xlink:href="#a1QaZQ6jiY" opacity="1" fill-opacity="0" stroke="#000000" stroke-width="1" stroke-opacity="0"></use></g></g><g><use xlink:href="#ir6M4YO3K" opacity="1" fill="#000000" fill-opacity="1"></use><g><use xlink:href="#ir6M4YO3K" opacity="1" fill-opacity="0" stroke="#000000" stroke-width="1" stroke-opacity="0"></use></g></g><g><use xlink:href="#a5Yzd3T4yo" opacity="1" fill="#000000" fill-opacity="1"></use><g><use xlink:href="#a5Yzd3T4yo" opacity="1" fill-opacity="0" stroke="#000000" stroke-width="1" stroke-opacity="0"></use></g></g></g></g></svg>