<?xml version="1.0" encoding="UTF-8" standalone="no"?>
<!DOCTYPE svg PUBLIC "-//W3C//DTD SVG 1.1//EN" "http://www.w3.org/Graphics/SVG/1.1/DTD/svg11.dtd">
<svg version="1.1" xmlns="http://www.w3.org/2000/svg" xmlns:xlink="http://www.w3.org/1999/xlink" preserveAspectRatio="xMidYMid meet" viewBox="0 0 150 150" width="150" height="150"><defs><path d="M50 0L58 0L58 150L50 150L50 0Z" id="a7LLwQz79E"></path><path d="M150 50L150 58L0 58L0 50L150 50Z" id="dRUGXF90r"></path><path d="M150 100L150 108L0 108L0 100L150 100Z" id="av7iAqn3P"></path><path d="M150 75L150 83L0 83L0 75L150 75Z" id="a1vV24OkK9"></path><path d="M100 0L108 0L108 150L100 150L100 0Z" id="abRO4CN6I"></path><path d="M75 0L83 0L83 150L75 150L75 0Z" id="c1pXNJLiOw"></path></defs><g><g><g><use xlink:href="#a7LLwQz79E" opacity="1" fill="#000000" fill-opacity="1"></use></g><g><use xlink:href="#dRUGXF90r" opacity="1" fill="#000000" fill-opacity="1"></use></g><g><use xlink:href="#av7iAqn3P" opacity="1" fill="#000000" fill-opacity="1"></use></g><g><use xlink:href="#a1vV24OkK9" opacity="1" fill="#000000" fill-opacity="1"></use></g><g><use xlink:href="#abRO4CN6I" opacity="1" fill="#000000" fill-opacity="1"></use></g><g><use xlink:href="#c1pXNJLiOw" opacity="1" fill="#000000" fill-opacity="1"></use></g></g></g></svg>