<?xml version="1.0" encoding="UTF-8" standalone="no"?>
<!DOCTYPE svg PUBLIC "-//W3C//DTD SVG 1.1//EN" "http://www.w3.org/Graphics/SVG/1.1/DTD/svg11.dtd">
<svg version="1.1" xmlns="http://www.w3.org/2000/svg" xmlns:xlink="http://www.w3.org/1999/xlink" preserveAspectRatio="xMidYMid meet" viewBox="0 0 150 150" width="150" height="150"><defs><path d="M50 0L58 0L58 150L50 150L50 0Z" id="a7LLwQz79E"></path><path d="M150 90L150 98L0 98L0 90L150 90Z" id="a1iG3zZwrz"></path><path d="M150 120L150 128L0 128L0 120L150 120Z" id="g2TbtmkPJs"></path><path d="M150 60L150 68L0 68L0 60L150 60Z" id="c16NJlAQXQ"></path><path d="M100 0L108 0L108 150L100 150L100 0Z" id="abRO4CN6I"></path><path d="M75 0L83 0L83 150L75 150L75 0Z" id="c1pXNJLiOw"></path><path d="M150 30L150 38L0 38L0 30L150 30Z" id="b1HZkWbGCk"></path></defs><g><g><g><use xlink:href="#a7LLwQz79E" opacity="1" fill="#000000" fill-opacity="1"></use></g><g><use xlink:href="#a1iG3zZwrz" opacity="1" fill="#000000" fill-opacity="1"></use></g><g><use xlink:href="#g2TbtmkPJs" opacity="1" fill="#000000" fill-opacity="1"></use></g><g><use xlink:href="#c16NJlAQXQ" opacity="1" fill="#000000" fill-opacity="1"></use></g><g><use xlink:href="#abRO4CN6I" opacity="1" fill="#000000" fill-opacity="1"></use></g><g><use xlink:href="#c1pXNJLiOw" opacity="1" fill="#000000" fill-opacity="1"></use></g><g><use xlink:href="#b1HZkWbGCk" opacity="1" fill="#000000" fill-opacity="1"></use></g></g></g></svg>