<?xml version="1.0" encoding="UTF-8" standalone="no"?>
<!DOCTYPE svg PUBLIC "-//W3C//DTD SVG 1.1//EN" "http://www.w3.org/Graphics/SVG/1.1/DTD/svg11.dtd">
<svg version="1.1" xmlns="http://www.w3.org/2000/svg" xmlns:xlink="http://www.w3.org/1999/xlink" preserveAspectRatio="xMidYMid meet" viewBox="0 0 150 150" width="150" height="150"><defs><path d="M50 0L58 0L58 150L50 150L50 0Z" id="a7LLwQz79E"></path><path d="M150 100L150 108L0 108L0 100L150 100Z" id="e1idDwntXO"></path><path d="M150 125L150 133L0 133L0 125L150 125Z" id="c1MBY8MJ4x"></path><path d="M150 60L150 68L0 68L0 60L150 60Z" id="c16NJlAQXQ"></path><path d="M100 0L108 0L108 150L100 150L100 0Z" id="abRO4CN6I"></path><path d="M75 0L83 0L83 150L75 150L75 0Z" id="c1pXNJLiOw"></path><path d="M150 50L150 58L0 58L0 50L150 50Z" id="b2uO8RjTFD"></path><path d="M150 25L150 33L0 33L0 25L150 25Z" id="e2iwknMwtU"></path></defs><g><g><g><use xlink:href="#a7LLwQz79E" opacity="1" fill="#000000" fill-opacity="1"></use></g><g><use xlink:href="#e1idDwntXO" opacity="1" fill="#000000" fill-opacity="1"></use></g><g><use xlink:href="#c1MBY8MJ4x" opacity="1" fill="#000000" fill-opacity="1"></use></g><g transform="matrix(1 0 0 1 0 15)" vector-effect="non-scaling-stroke"><use xlink:href="#c16NJlAQXQ" opacity="1" fill="#000000" fill-opacity="1"></use></g><g><use xlink:href="#abRO4CN6I" opacity="1" fill="#000000" fill-opacity="1"></use></g><g><use xlink:href="#c1pXNJLiOw" opacity="1" fill="#000000" fill-opacity="1"></use></g><g><use xlink:href="#b2uO8RjTFD" opacity="1" fill="#000000" fill-opacity="1"></use></g><g><use xlink:href="#e2iwknMwtU" opacity="1" fill="#000000" fill-opacity="1"></use></g></g></g></svg>