<?xml version="1.0" encoding="UTF-8" standalone="no"?>
<!DOCTYPE svg PUBLIC "-//W3C//DTD SVG 1.1//EN" "http://www.w3.org/Graphics/SVG/1.1/DTD/svg11.dtd">
<svg version="1.1" xmlns="http://www.w3.org/2000/svg" xmlns:xlink="http://www.w3.org/1999/xlink" preserveAspectRatio="xMidYMid meet" viewBox="0 0 150 150" width="150" height="150"><defs><path d="M30 0L38 0L38 150L30 150L30 0Z" id="c4BSIwZXR"></path><path d="M150 100L150 108L0 108L0 100L150 100Z" id="dipzAntvC"></path><path d="M150 75L150 83L0 83L0 75L150 75Z" id="d33ZDOgqlX"></path><path d="M90 0L98 0L98 150L90 150L90 0Z" id="c3Z45Dd234"></path><path d="M60 0L68 0L68 150L60 150L60 0Z" id="bVJRGTAxG"></path><path d="M150 50L150 58L0 58L0 50L150 50Z" id="e4ctzp2PxA"></path><path d="M118.92 1.13L126.92 1.13L126.92 151.13L118.92 151.13L118.92 1.13Z" id="d1mbJfaJKV"></path></defs><g><g><g><use xlink:href="#c4BSIwZXR" opacity="1" fill="#000000" fill-opacity="1"></use></g><g><use xlink:href="#dipzAntvC" opacity="1" fill="#000000" fill-opacity="1"></use></g><g><use xlink:href="#d33ZDOgqlX" opacity="1" fill="#000000" fill-opacity="1"></use></g><g><use xlink:href="#c3Z45Dd234" opacity="1" fill="#000000" fill-opacity="1"></use></g><g><use xlink:href="#bVJRGTAxG" opacity="1" fill="#000000" fill-opacity="1"></use></g><g><use xlink:href="#e4ctzp2PxA" opacity="1" fill="#000000" fill-opacity="1"></use></g><g><use xlink:href="#d1mbJfaJKV" opacity="1" fill="#000000" fill-opacity="1"></use></g></g></g></svg>