<?xml version="1.0" encoding="UTF-8" standalone="no"?>
<!DOCTYPE svg PUBLIC "-//W3C//DTD SVG 1.1//EN" "http://www.w3.org/Graphics/SVG/1.1/DTD/svg11.dtd">
<svg version="1.1" xmlns="http://www.w3.org/2000/svg" xmlns:xlink="http://www.w3.org/1999/xlink" preserveAspectRatio="xMidYMid meet" viewBox="0 0 150 150" width="150" height="150"><defs><path d="M25 0L33 0L33 150L25 150L25 0Z" id="b5XqY89N1"></path><path d="M150 100L150 108L0 108L0 100L150 100Z" id="cakiIunNC"></path><path d="M150 75L150 83L0 83L0 75L150 75Z" id="a2kpLHObqd"></path><path d="M75 0L83 0L83 150L75 150L75 0Z" id="g3jFcN1gf"></path><path d="M50 0L58 0L58 150L50 150L50 0Z" id="amvWKi0xY"></path><path d="M150 50L150 58L0 58L0 50L150 50Z" id="aeF8jVmZm"></path><path d="M100 0L108 0L108 150L100 150L100 0Z" id="doFsCJVbj"></path><path d="M125 0L133 0L133 150L125 150L125 0Z" id="btGFXy9I"></path></defs><g><g><g><use xlink:href="#b5XqY89N1" opacity="1" fill="#000000" fill-opacity="1"></use></g><g><use xlink:href="#cakiIunNC" opacity="1" fill="#000000" fill-opacity="1"></use></g><g><use xlink:href="#a2kpLHObqd" opacity="1" fill="#000000" fill-opacity="1"></use></g><g><use xlink:href="#g3jFcN1gf" opacity="1" fill="#000000" fill-opacity="1"></use></g><g><use xlink:href="#amvWKi0xY" opacity="1" fill="#000000" fill-opacity="1"></use></g><g><use xlink:href="#aeF8jVmZm" opacity="1" fill="#000000" fill-opacity="1"></use></g><g><use xlink:href="#doFsCJVbj" opacity="1" fill="#000000" fill-opacity="1"></use></g><g><use xlink:href="#btGFXy9I" opacity="1" fill="#000000" fill-opacity="1"></use></g></g></g></svg>