<?xml version="1.0" encoding="UTF-8" standalone="no"?>
<!DOCTYPE svg PUBLIC "-//W3C//DTD SVG 1.1//EN" "http://www.w3.org/Graphics/SVG/1.1/DTD/svg11.dtd">
<svg version="1.1" xmlns="http://www.w3.org/2000/svg" xmlns:xlink="http://www.w3.org/1999/xlink" preserveAspectRatio="xMidYMid meet" viewBox="0 0 150 150" width="150" height="150"><defs><path d="M25 0L33 0L33 150L25 150L25 0Z" id="b5XqY89N1"></path><path d="M150 120L150 128L0 128L0 120L150 120Z" id="a1KJlOXcN8"></path><path d="M150 90L150 98L0 98L0 90L150 90Z" id="a8XI78hWU"></path><path d="M75 0L83 0L83 150L75 150L75 0Z" id="g3jFcN1gf"></path><path d="M50 0L58 0L58 150L50 150L50 0Z" id="amvWKi0xY"></path><path d="M150 60L150 68L0 68L0 60L150 60Z" id="b1EecFUnK"></path><path d="M150 30L150 38L0 38L0 30L150 30Z" id="bw31I6tG"></path><path d="M100 0L108 0L108 150L100 150L100 0Z" id="doFsCJVbj"></path><path d="M125 0L133 0L133 150L125 150L125 0Z" id="cnT0yAQdS"></path></defs><g><g><g><use xlink:href="#b5XqY89N1" opacity="1" fill="#000000" fill-opacity="1"></use></g><g><use xlink:href="#a1KJlOXcN8" opacity="1" fill="#000000" fill-opacity="1"></use></g><g><use xlink:href="#a8XI78hWU" opacity="1" fill="#000000" fill-opacity="1"></use></g><g><use xlink:href="#g3jFcN1gf" opacity="1" fill="#000000" fill-opacity="1"></use></g><g><use xlink:href="#amvWKi0xY" opacity="1" fill="#000000" fill-opacity="1"></use></g><g><use xlink:href="#b1EecFUnK" opacity="1" fill="#000000" fill-opacity="1"></use></g><g><use xlink:href="#bw31I6tG" opacity="1" fill="#000000" fill-opacity="1"></use></g><g><use xlink:href="#doFsCJVbj" opacity="1" fill="#000000" fill-opacity="1"></use></g><g><use xlink:href="#cnT0yAQdS" opacity="1" fill="#000000" fill-opacity="1"></use></g></g></g></svg>